Patient4_TMGait_0pt7_01_left_10_EMG.mot
version=1
nRows=23
nColumns=33
inDegrees=no
endheader
time	1LAddLong	2LGlutMax	3LGlutMed	4LIliopsoas	5LSemiMemb	6LBicFemLong	7LRecFem	8LVastMed	9LVastLat	10LGasMed	11LTibAnt	12lTibPost	13LPeroneusLong	14LSol	15LExtDigLong	16LFlexDigLong	17RAddLong	18RGlutMax	19RGlutMed	20RIliopsoas	21RSemiMemb	22RBicFemLong	23RRecFem	24RVastMed	25RVastLat	26RGasMed	27RTibAnt	28RTibPost	29RPeroneusLong	30RSol	31RExtDigLong	32RFlexDigLong
12.275	0.016327	0.46127	-0.022888	0.024872	0.1828	-0.10178	-0.33676	0.001526	-0.025787	0.74036	-0.008698	-0.22812	0.18967	0.10147	0.72494	0.16022	-0.1709	-0.38422	0.005188	0.031128	0.3627	0.25543	-0.18631	0.35553	0.625	0.011292	-0.52185	-0.008087	0.28702	0.001221	-0.007935	-0.000153
12.276	0.005035	0.46631	-0.02121	0.014954	0.064697	-0.078125	-0.36148	-0.000305	-0.01236	0.36453	-0.010529	-0.005493	0.17166	0.54596	0.55954	0.06546	-0.13062	-0.43991	0.036316	-0.009155	0.55328	0.40207	-0.33524	0.97931	0.50629	0.005035	-0.457	-0.01297	0.086212	0.054016	-0.007324	-0.01297
12.277	-0.000763	0.46509	0.059814	0.014191	0.029602	0.07843	-0.383	0.00061	-0.005646	0.34775	-0.007172	0.008392	0.085907	0.58289	0.44266	-0.011444	-0.049133	-0.49454	0.028534	-0.019531	0.73761	0.29938	-0.39169	0.99274	0.34103	0.000916	-0.29327	-0.014343	-0.058899	0.17593	-0.007935	-0.00885
12.278	-0.003357	0.40894	0.13596	0.006409	0.017242	0.18127	-0.36301	0.002289	-0.015564	0.45624	0.002441	0.23102	-0.088959	0.44693	0.33722	-0.011444	-0.024567	-0.634	0.10025	-0.019226	0.38574	0.21484	-0.3183	0.81604	0.11307	-0.007629	-0.13077	-0.010986	-0.007782	0.23956	-0.008698	-0.012054
12.279	-0.009766	0.39536	0.13779	0.000305	-0.051117	0.061035	-0.36713	0.004272	-0.002136	-0.12146	0.005798	-0.19394	-0.16037	0.046692	0.28885	-0.028687	-0.00946	-0.67337	0.039368	-0.021667	-0.024414	0.17822	-0.29266	0.43289	-0.084229	-0.013428	0.016785	-0.00885	0.054932	0.29312	-0.009766	-0.002594
12.28	-0.002289	0.38986	0.11841	0.010223	-0.10071	-0.045929	-0.36423	0.003967	-0.00885	-0.49744	0.001678	-0.32303	-0.098114	-0.49835	0.25971	-0.50064	0.011292	-0.65369	0.024567	-0.028381	-0.16724	0.21759	-0.25391	-0.021515	-0.13184	-0.014954	-0.020905	-0.006714	0.046539	0.33402	-0.007935	-0.002899
12.281	0.006561	0.36163	0.12985	0.007477	-0.012817	-0.057068	-0.36179	-0.01709	-0.028076	0.21591	0.011749	-0.091248	-0.13458	-0.74692	0.22797	-0.65521	0.053864	-0.67612	0.030975	-0.014648	0.000305	0.24399	-0.091705	-0.4982	-0.097504	-0.013885	0.010223	0.000153	0.049286	0.25146	-0.005951	0.002136
12.282	0.031128	0.36926	0.14816	0.003357	0.024567	-0.019989	-0.40817	-0.049438	-0.014648	0.15198	0.017853	-0.005646	-0.086975	-0.29755	0.22812	0.60913	0.045013	-0.49286	-0.037384	-0.054779	0.3389	0.21561	-0.14389	-0.728	0.35492	-0.007019	0.016479	-0.008392	0.09903	0.15289	-0.004578	-0.003357
12.283	0.032349	0.38422	0.17364	-0.004272	0.061493	-0.019836	-0.40924	-0.012207	-0.002899	-0.1561	0.034637	-0.018768	-0.091705	-0.11658	0.18738	-1.5183	0.038452	-0.40146	-0.18204	-0.067596	0.29007	0.34805	-0.4184	-0.65445	0.76736	-0.012207	0.020447	-0.003967	0.079041	0.10773	-0.006104	-0.001831
12.284	0.025024	0.37979	0.24719	0.007019	0.027466	-0.084839	-0.4393	-0.002747	-0.012665	-0.4512	0.021057	0.005035	0.010529	-0.36514	0.19257	0.40512	-0.011292	-0.29144	-0.15076	-0.088959	0.15167	0.46356	-0.73654	-0.6012	0.83191	-0.00946	0.12665	-0.007629	-0.014038	0.04425	-0.005646	-0.002441
12.285	0.027161	0.37582	0.28107	0.011139	0.025787	-0.13733	-0.40726	-0.005188	-0.008545	-0.39536	0.024719	-0.020447	0.070953	-0.24918	0.19547	1.1719	-0.04364	-0.20142	-0.060883	-0.12238	0.1387	0.42679	-0.6311	-0.44479	0.28641	-0.007019	0.17838	-0.009308	-0.005646	0.014801	-0.006256	-0.005798
12.286	0.020447	0.36499	0.2449	-0.001068	0.064087	-0.19974	-0.39505	-0.005798	-0.011597	-0.47653	0.011292	0.023651	0.097961	0.10056	0.17517	-0.45776	-0.035706	-0.072174	-0.085449	-0.13901	-0.076294	0.42511	-0.54688	-0.25681	-0.17136	-0.011749	0.13062	0.000153	-0.025177	0.016327	-0.007019	-0.005493
12.287	0.023651	0.35233	0.29343	0.003815	0.066223	-0.16464	-0.37994	-0.012665	-0.007782	-0.46143	0.007629	0.044861	0.12955	0.25772	0.13123	0.26764	0.005035	-0.003815	-0.12146	-0.10956	-0.051727	0.48279	-0.48691	-0.087433	-0.55588	-0.008087	0.14191	-0.007172	-0.015869	-0.00412	-0.007935	-0.005951
12.288	0.028534	0.34683	0.31281	0.002289	0.052185	0.000458	-0.38544	-0.004578	-0.009155	-0.48508	0.008698	0.23666	0.079956	0.60867	0.16419	0.67368	-0.008545	0.10391	-0.1799	-0.085907	0.028229	0.53406	-0.45731	0.1033	-0.45517	-0.011902	0.12848	0.006256	-0.069275	-0.005951	-0.002747	-0.046692
12.289	0.027008	0.31174	0.29633	0.005798	0.036163	0.07843	-0.37277	0.004425	-0.020752	-0.36606	0.005493	-0.0914	0.014496	1.1963	0.22705	-0.57373	0.011749	0.019226	-0.22415	-0.035553	0.14694	0.46127	-0.47882	0.18631	-0.14175	-0.00473	-0.021362	-0.002899	-0.037079	-0.024109	-0.006104	-0.052185
12.29	0.018463	0.34592	0.31448	0.014038	-0.010834	0.19333	-0.35233	0.006714	-0.036316	-0.17578	-0.003204	-0.094147	0.059052	0.71655	0.27771	0.30518	0.006409	-0.03418	-0.30807	0.063324	0.24368	0.58701	-0.33249	0.2002	-0.075226	-0.002441	-0.05722	-0.002441	0.17838	-0.013275	-0.005951	-0.045776
12.291	0.006561	0.29953	0.32166	-0.002899	-0.002136	0.15366	-0.36331	0.006866	-0.037537	-0.067444	0.005035	-0.11032	0.046997	-0.013885	0.28305	0.31815	0.013428	-0.054016	-0.31876	0.17441	0.16708	0.70129	-0.037231	0.098877	-0.11398	-0.007629	0.015564	-0.004425	0.43472	-0.009003	-0.001526	-0.045471
12.292	0.007019	0.26245	0.31342	-0.009613	0.020752	0.075073	-0.36438	0.004578	-0.029297	-0.030518	0.001831	-0.048981	-0.018921	-0.27145	0.28992	0.087128	-0.026703	-0.048065	-0.26474	0.13687	-0.27252	0.39917	0.087738	0.10407	-0.14587	-0.001831	0.032501	-0.003815	0.35034	-0.023651	-0.003815	-0.041504
12.293	0.014496	0.27588	0.26794	0.002747	0.035706	0.052185	-0.35934	-0.000305	-0.040131	0.04303	0.007782	-0.006256	-0.040588	-1.0297	0.29968	-0.027313	-0.066681	-0.008392	-0.23056	0.08194	-0.25269	0.31158	0.074615	0.031128	-0.22263	-0.001068	0.021667	-0.003052	-0.056458	-0.032959	-0.006561	-0.039368
12.294	0.026703	0.29999	0.26886	0.019379	0.036926	0.025177	-0.36667	-0.007324	-0.026703	0.085602	0.012512	0.2385	-0.075684	-1.5698	0.33569	-0.091705	-0.06897	0.12192	-0.21957	0.06424	-0.16632	0.42191	0.099335	-0.11948	-0.26093	-0.009155	0.075531	-0.005493	-0.38696	-0.016785	-0.005646	-0.031281
12.295	0.014648	0.25726	0.39246	-0.013123	0.010681	0.11276	-0.38376	-0.005646	-0.0177	0.19867	0.00824	0.31586	0.001526	-1.0042	0.39368	-0.13779	-0.091858	0.062561	-0.17853	0.063171	0.50446	0.60638	-0.003967	-0.19653	-0.26474	-0.009613	0.09201	-0.003204	-0.37857	-0.008087	-0.005188	-0.025482
12.296	0.023041	0.23804	0.38025	-0.010681	-0.018616	0.11032	-0.39749	-0.00061	-0.003662	0.31204	0.000458	-0.53329	0.041809	-0.07843	0.49362	0.26764	-0.16281	0.028992	-0.19073	-0.016785	0.69977	0.74554	-0.098114	-0.024567	-0.29053	0.000153	0.1033	-0.002747	-0.36316	-0.11292	-0.015106	-0.02655
12.297	0.016937	0.23468	0.31281	-0.003052	-0.02533	0.097961	-0.34882	-0.003204	-0.00351	0.35736	-0.000763	-0.15381	0.007935	0.22217	0.6189	0.13809	-0.13947	0.11307	-0.2684	-0.20828	0.41443	0.77911	-0.06485	-0.004425	-0.21683	-0.001678	0.12589	-0.003815	-0.29968	-0.09613	-0.006561	-0.03067
